<svg width="56" height="75" viewBox="0 0 56 75" fill="none" xmlns="http://www.w3.org/2000/svg">
<path d="M38.7296 68.7666C41.2762 68.7666 43.3406 66.7022 43.3406 64.1556L43.3406 39.682C43.3406 37.1354 41.2762 35.071 38.7296 35.071C36.7924 35.071 35.1574 33.6305 34.9134 31.7088L31.3062 3.30227C31.0891 1.59279 29.6348 0.311409 27.9116 0.311409C26.1883 0.311409 24.734 1.59279 24.5169 3.30227L20.9097 31.7088C20.6657 33.6306 19.0307 35.071 17.0935 35.071C14.5469 35.071 12.4825 37.1354 12.4825 39.682L12.4825 64.1556C12.4825 66.7022 14.5469 68.7666 17.0935 68.7666L38.7296 68.7666Z" fill="#546E7A"/>
<rect x="43.3404" y="62.0273" width="30.858" height="3.5469" transform="rotate(-180 43.3404 62.0273)" fill="black" fill-opacity="0.5"/>
<rect x="41.9218" y="20.1738" width="26.2471" height="2.83752" transform="rotate(-180 41.9218 20.1738)" fill="#546E7A"/>
<path d="M44.4042 7.12113C44.4042 7.66962 43.9595 8.11426 43.411 8.11426L12.4111 8.11426C11.8626 8.11426 11.418 7.66962 11.418 7.12113C11.418 4.92716 13.1966 3.1486 15.3905 3.1486L40.4316 3.1486C42.6256 3.1486 44.4042 4.92716 44.4042 7.12113Z" fill="#DD2C00"/>
<path d="M31.3062 68.7666C31.3062 68.7666 38.7296 52.0962 43.3406 39.682C43.3406 37.1354 41.2762 35.071 38.7296 35.071C36.7924 35.071 35.1574 33.6305 34.9134 31.7088L31.3062 3.30227C31.0891 1.59279 29.6348 0.311409 27.9116 0.311409C26.1883 0.311409 24.734 1.59279 24.5169 3.30227L20.9097 31.7088C20.6657 33.6306 19.0307 35.071 17.0935 35.071C14.5469 35.071 12.4825 37.1354 12.4825 39.682C17.0935 50.6774 24.5169 68.7666 24.5169 68.7666L31.3062 68.7666Z" fill="#FF3D00"/>
<rect x="13.5464" y="68.0571" width="12.7688" height="17.7345" rx="4" transform="rotate(-180 13.5464 68.0571)" fill="#37474F"/>
<rect x="17.0933" y="26.2036" width="10.6407" height="15.2517" rx="4" transform="rotate(-180 17.0933 26.2036)" fill="#37474F"/>
<rect x="55.045" y="68.0566" width="12.7688" height="17.7345" rx="4" transform="rotate(-180 55.045 68.0566)" fill="#37474F"/>
<rect x="49.725" y="26.2036" width="10.6407" height="15.2517" rx="4" transform="rotate(-180 49.725 26.2036)" fill="#37474F"/>
<path d="M32.8768 65.2192L22.7681 65.2192L20.2853 58.4801L35.7143 58.4801L32.8768 65.2192Z" fill="#DD2C00"/>
<path d="M49.0153 74.4414L7.16188 74.4414L10.7088 63.8007L45.4684 63.8007L49.0153 74.4414Z" fill="#FF3D00"/>
<path d="M44.4046 74.4414L11.4184 74.4414L14.2139 67.5249L27.9115 65.2195L41.6092 67.5249L44.4046 74.4414Z" fill="#B62B00"/>
<path d="M32.345 46.007C32.345 47.8026 30.8894 49.2583 29.0937 49.2583L27.0838 49.2583C25.2881 49.2583 23.8325 47.8026 23.8325 46.007L23.8325 34.0066C23.8325 31.656 25.7381 29.7503 28.0888 29.7503C30.4394 29.7503 32.345 31.6559 32.345 34.0066L32.345 46.007Z" fill="#2D0A04"/>
<path d="M31.281 42.6377C31.281 43.5519 30.5399 44.293 29.6258 44.293L26.5518 44.293C25.6376 44.293 24.8966 43.5519 24.8966 42.6377L24.8966 37.5539C24.8966 35.7908 26.3258 34.3616 28.0888 34.3616C29.8518 34.3616 31.281 35.7908 31.281 37.5539L31.281 42.6377Z" fill="#642217"/>
<rect x="35.892" y="45.7114" width="15.6064" height="3.19221" transform="rotate(-180 35.892 45.7114)" fill="#FF3D00"/>
</svg>
