<svg width="32" height="32" viewBox="0 0 32 32" fill="none" xmlns="http://www.w3.org/2000/svg">
<path d="M26.6667 2.66666H5.33341C4.00008 2.66666 2.66675 3.86666 2.66675 5.33332V9.34666C2.66675 10.3067 3.24008 11.1333 4.00008 11.6V26.6667C4.00008 28.1333 5.46675 29.3333 6.66675 29.3333H25.3334C26.5334 29.3333 28.0001 28.1333 28.0001 26.6667V11.6C28.7601 11.1333 29.3334 10.3067 29.3334 9.34666V5.33332C29.3334 3.86666 28.0001 2.66666 26.6667 2.66666ZM25.3334 26.6667H6.66675V12H25.3334V26.6667ZM26.6667 9.33332H5.33341V5.33332H26.6667V9.33332Z" fill="white"/>
<path d="M12 16H20V18.6667H12V16Z" fill="white"/>
</svg>
