<svg width="62" height="71" viewBox="0 0 62 71" fill="none" xmlns="http://www.w3.org/2000/svg">
<ellipse cx="31" cy="67" rx="8" ry="4" fill="black" fill-opacity="0.3"/>
<circle cx="31" cy="31" r="28" fill="#EAC0FE" stroke="#531570" stroke-width="6"/>
<path d="M31.1281 68L23.4546 60H39.4546L31.1281 68Z" fill="#531570"/>
<path d="M19.3636 21.7518C26.6363 12.6609 38.0909 14.1154 43.3636 18.2973C47.9824 21.9605 49.9091 28.2381 45.9091 33.7518C41.9091 39.2654 33.5158 36.6609 30.6363 38.479C27.7569 40.2972 27.3636 43.9336 23 44.2972C13.9336 45.0528 13.5244 29.0509 19.3636 21.7518Z" fill="white" stroke="#531570" stroke-width="4"/>
<path d="M42.9092 28.4901C42.9092 31.2788 38.8457 32.2972 38.8457 32.2972C38.8457 32.2972 34.9092 31.2788 34.9092 28.4901C34.9092 25.7015 38.8457 22.479 38.8457 22.479C38.8457 22.479 42.9092 25.7015 42.9092 28.4901Z" fill="white" stroke="#531570" stroke-width="3"/>
<rect x="37.0909" y="30.8428" width="3.27273" height="13.4545" fill="#531570"/>
<circle cx="30.909" cy="21.479" r="2.54545" fill="#531570"/>
<circle cx="23.4546" cy="26.5698" r="2" fill="#531570"/>
<circle cx="21.9092" cy="33.4791" r="1.63636" fill="#531570"/>
</svg>
