<svg width="62" height="72" viewBox="0 0 62 72" fill="none" xmlns="http://www.w3.org/2000/svg">
<circle cx="31" cy="31" r="28" fill="#BEFAC4" stroke="#045507" stroke-width="6"/>
<ellipse cx="31" cy="68" rx="8" ry="4" fill="black" fill-opacity="0.3"/>
<path d="M30.6735 68L23 60H39L30.6735 68Z" fill="#045507"/>
<path d="M17 20H45V25.7252C42.4667 26.1395 40.6067 28.3925 40.6067 31C40.6067 33.6075 42.4667 35.8605 45 36.2748V42H17V36.3129C19.6754 36.0249 21.6741 33.7029 21.6741 31C21.6741 28.2971 19.6754 25.9751 17 25.6872V20Z" fill="white" stroke="#045507" stroke-width="4"/>
<path d="M31 25L32.8339 28.4759L36.7063 29.1459L33.9673 31.9641L34.5267 35.8541L31 34.12L27.4733 35.8541L28.0327 31.9641L25.2937 29.1459L29.1661 28.4759L31 25Z" fill="#005B04"/>
</svg>
